<svg id="Layer_1" data-name="Layer 1" xmlns="http://www.w3.org/2000/svg" width="713.62" height="215.67" viewBox="0 0 713.62 215.67">
  <path d="M359.49,532.59a28.77,28.77,0,0,1-14.2-3.8,28.42,28.42,0,0,1-14.54-25V345.7A28.74,28.74,0,0,1,374.2,321l132.54,79.06a28.73,28.73,0,0,1,0,49.35L374.2,528.48A28.73,28.73,0,0,1,359.49,532.59Z" transform="translate(-67.94 -316.92)"/>
  <path d="M136.64,321.33H67.94V528.18h68.7V458.76h70.08v69.42h68.7V321.33h-68.7v68H136.64Zm437.44,0H781.56V528.18h-68.7V389.35H642.79V528.18H574.08Z" transform="translate(-67.94 -316.92)" fill-rule="evenodd"/>
</svg>
